<?xml version="1.0" encoding="UTF-8" standalone="no"?>
<!DOCTYPE svg PUBLIC "-//W3C//DTD SVG 1.1//EN"
 "http://www.w3.org/Graphics/SVG/1.1/DTD/svg11.dtd">
<!-- Generated by graphviz version 2.38.0 (20140413.2041)
 -->
<!-- Title: btree Pages: 1 -->
<svg width="566pt" height="260pt"
 viewBox="0.00 0.00 566.00 260.00" xmlns="http://www.w3.org/2000/svg" xmlns:xlink="http://www.w3.org/1999/xlink">
<g id="graph0" class="graph" transform="scale(1 1) rotate(0) translate(4 256)">
<title>btree</title>
<polygon fill="white" stroke="none" points="-4,4 -4,-256 562,-256 562,4 -4,4"/>
<!-- root -->
<g id="node1" class="node"><title>root</title>
<ellipse fill="none" stroke="black" cx="279" cy="-234" rx="27" ry="18"/>
<text text-anchor="middle" x="279" y="-230.3" font-family="Times New Roman,serif" font-size="14.00">1</text>
</g>
<!-- l -->
<g id="node2" class="node"><title>l</title>
<ellipse fill="none" stroke="black" cx="207" cy="-162" rx="27" ry="18"/>
<text text-anchor="middle" x="207" y="-158.3" font-family="Times New Roman,serif" font-size="14.00">2</text>
</g>
<!-- l&#45;&gt;root -->
<g id="edge1" class="edge"><title>l&#45;&gt;root</title>
<path fill="none" stroke="black" d="M221.57,-177.166C231.75,-187.062 245.524,-200.454 257.031,-211.641"/>
<polygon fill="black" stroke="black" points="254.595,-214.154 264.204,-218.615 259.474,-209.135 254.595,-214.154"/>
</g>
<!-- r -->
<g id="node3" class="node"><title>r</title>
<ellipse fill="none" stroke="black" cx="351" cy="-162" rx="27" ry="18"/>
<text text-anchor="middle" x="351" y="-158.3" font-family="Times New Roman,serif" font-size="14.00">3</text>
</g>
<!-- r&#45;&gt;root -->
<g id="edge2" class="edge"><title>r&#45;&gt;root</title>
<path fill="none" stroke="black" d="M336.43,-177.166C326.25,-187.062 312.476,-200.454 300.969,-211.641"/>
<polygon fill="black" stroke="black" points="298.526,-209.135 293.796,-218.615 303.405,-214.154 298.526,-209.135"/>
</g>
<!-- ll -->
<g id="node4" class="node"><title>ll</title>
<ellipse fill="none" stroke="black" cx="99" cy="-90" rx="27" ry="18"/>
<text text-anchor="middle" x="99" y="-86.3" font-family="Times New Roman,serif" font-size="14.00">4</text>
</g>
<!-- ll&#45;&gt;l -->
<g id="edge3" class="edge"><title>ll&#45;&gt;l</title>
<path fill="none" stroke="black" d="M117.812,-103.193C135.002,-114.335 160.618,-130.938 179.993,-143.496"/>
<polygon fill="black" stroke="black" points="178.108,-146.445 188.403,-148.947 181.916,-140.571 178.108,-146.445"/>
</g>
<!-- rl -->
<g id="node5" class="node"><title>rl</title>
<ellipse fill="none" stroke="black" cx="207" cy="-90" rx="27" ry="18"/>
<text text-anchor="middle" x="207" y="-86.3" font-family="Times New Roman,serif" font-size="14.00">5</text>
</g>
<!-- rl&#45;&gt;l -->
<g id="edge4" class="edge"><title>rl&#45;&gt;l</title>
<path fill="none" stroke="black" d="M207,-108.303C207,-116.017 207,-125.288 207,-133.888"/>
<polygon fill="black" stroke="black" points="203.5,-133.896 207,-143.896 210.5,-133.896 203.5,-133.896"/>
</g>
<!-- lr -->
<g id="node6" class="node"><title>lr</title>
<ellipse fill="none" stroke="black" cx="351" cy="-90" rx="27" ry="18"/>
<text text-anchor="middle" x="351" y="-86.3" font-family="Times New Roman,serif" font-size="14.00">6</text>
</g>
<!-- lr&#45;&gt;r -->
<g id="edge5" class="edge"><title>lr&#45;&gt;r</title>
<path fill="none" stroke="black" d="M351,-108.303C351,-116.017 351,-125.288 351,-133.888"/>
<polygon fill="black" stroke="black" points="347.5,-133.896 351,-143.896 354.5,-133.896 347.5,-133.896"/>
</g>
<!-- rr -->
<g id="node7" class="node"><title>rr</title>
<ellipse fill="none" stroke="black" cx="459" cy="-90" rx="27" ry="18"/>
<text text-anchor="middle" x="459" y="-86.3" font-family="Times New Roman,serif" font-size="14.00">7</text>
</g>
<!-- rr&#45;&gt;r -->
<g id="edge6" class="edge"><title>rr&#45;&gt;r</title>
<path fill="none" stroke="black" d="M440.188,-103.193C422.998,-114.335 397.382,-130.938 378.007,-143.496"/>
<polygon fill="black" stroke="black" points="376.084,-140.571 369.597,-148.947 379.892,-146.445 376.084,-140.571"/>
</g>
<!-- lll -->
<g id="node8" class="node"><title>lll</title>
<ellipse fill="none" stroke="black" cx="27" cy="-18" rx="27" ry="18"/>
<text text-anchor="middle" x="27" y="-14.3" font-family="Times New Roman,serif" font-size="14.00">8</text>
</g>
<!-- lll&#45;&gt;ll -->
<g id="edge7" class="edge"><title>lll&#45;&gt;ll</title>
<path fill="none" stroke="black" d="M41.5703,-33.1655C51.7499,-43.0624 65.5239,-56.4538 77.0306,-67.6409"/>
<polygon fill="black" stroke="black" points="74.5945,-70.1539 84.2043,-74.6153 79.4741,-65.135 74.5945,-70.1539"/>
</g>
<!-- rll -->
<g id="node9" class="node"><title>rll</title>
<ellipse fill="none" stroke="black" cx="99" cy="-18" rx="27" ry="18"/>
<text text-anchor="middle" x="99" y="-14.3" font-family="Times New Roman,serif" font-size="14.00">9</text>
</g>
<!-- rll&#45;&gt;ll -->
<g id="edge8" class="edge"><title>rll&#45;&gt;ll</title>
<path fill="none" stroke="black" d="M99,-36.3034C99,-44.0173 99,-53.2875 99,-61.8876"/>
<polygon fill="black" stroke="black" points="95.5001,-61.8956 99,-71.8957 102.5,-61.8957 95.5001,-61.8956"/>
</g>
<!-- lrl -->
<g id="node10" class="node"><title>lrl</title>
<ellipse fill="none" stroke="black" cx="171" cy="-18" rx="27" ry="18"/>
<text text-anchor="middle" x="171" y="-14.3" font-family="Times New Roman,serif" font-size="14.00">10</text>
</g>
<!-- lrl&#45;&gt;rl -->
<g id="edge9" class="edge"><title>lrl&#45;&gt;rl</title>
<path fill="none" stroke="black" d="M179.35,-35.2354C183.712,-43.7169 189.147,-54.2856 194.041,-63.8026"/>
<polygon fill="black" stroke="black" points="191.01,-65.5605 198.696,-72.8527 197.235,-62.3591 191.01,-65.5605"/>
</g>
<!-- rrl -->
<g id="node11" class="node"><title>rrl</title>
<ellipse fill="none" stroke="black" cx="243" cy="-18" rx="27" ry="18"/>
<text text-anchor="middle" x="243" y="-14.3" font-family="Times New Roman,serif" font-size="14.00">11</text>
</g>
<!-- rrl&#45;&gt;rl -->
<g id="edge10" class="edge"><title>rrl&#45;&gt;rl</title>
<path fill="none" stroke="black" d="M234.65,-35.2354C230.288,-43.7169 224.853,-54.2856 219.959,-63.8026"/>
<polygon fill="black" stroke="black" points="216.765,-62.3591 215.304,-72.8527 222.99,-65.5605 216.765,-62.3591"/>
</g>
<!-- llr -->
<g id="node12" class="node"><title>llr</title>
<ellipse fill="none" stroke="black" cx="315" cy="-18" rx="27" ry="18"/>
<text text-anchor="middle" x="315" y="-14.3" font-family="Times New Roman,serif" font-size="14.00">12</text>
</g>
<!-- llr&#45;&gt;lr -->
<g id="edge11" class="edge"><title>llr&#45;&gt;lr</title>
<path fill="none" stroke="black" d="M323.35,-35.2354C327.712,-43.7169 333.147,-54.2856 338.041,-63.8026"/>
<polygon fill="black" stroke="black" points="335.01,-65.5605 342.696,-72.8527 341.235,-62.3591 335.01,-65.5605"/>
</g>
<!-- rlr -->
<g id="node13" class="node"><title>rlr</title>
<ellipse fill="none" stroke="black" cx="387" cy="-18" rx="27" ry="18"/>
<text text-anchor="middle" x="387" y="-14.3" font-family="Times New Roman,serif" font-size="14.00">13</text>
</g>
<!-- rlr&#45;&gt;lr -->
<g id="edge12" class="edge"><title>rlr&#45;&gt;lr</title>
<path fill="none" stroke="black" d="M378.65,-35.2354C374.288,-43.7169 368.853,-54.2856 363.959,-63.8026"/>
<polygon fill="black" stroke="black" points="360.765,-62.3591 359.304,-72.8527 366.99,-65.5605 360.765,-62.3591"/>
</g>
<!-- lrr -->
<g id="node14" class="node"><title>lrr</title>
<ellipse fill="none" stroke="black" cx="459" cy="-18" rx="27" ry="18"/>
<text text-anchor="middle" x="459" y="-14.3" font-family="Times New Roman,serif" font-size="14.00">14</text>
</g>
<!-- lrr&#45;&gt;rr -->
<g id="edge13" class="edge"><title>lrr&#45;&gt;rr</title>
<path fill="none" stroke="black" d="M459,-36.3034C459,-44.0173 459,-53.2875 459,-61.8876"/>
<polygon fill="black" stroke="black" points="455.5,-61.8956 459,-71.8957 462.5,-61.8957 455.5,-61.8956"/>
</g>
<!-- rrr -->
<g id="node15" class="node"><title>rrr</title>
<ellipse fill="none" stroke="black" cx="531" cy="-18" rx="27" ry="18"/>
<text text-anchor="middle" x="531" y="-14.3" font-family="Times New Roman,serif" font-size="14.00">15</text>
</g>
<!-- rrr&#45;&gt;rr -->
<g id="edge14" class="edge"><title>rrr&#45;&gt;rr</title>
<path fill="none" stroke="black" d="M516.43,-33.1655C506.25,-43.0624 492.476,-56.4538 480.969,-67.6409"/>
<polygon fill="black" stroke="black" points="478.526,-65.135 473.796,-74.6153 483.405,-70.1539 478.526,-65.135"/>
</g>
</g>
</svg>
